<svg xmlns="http://www.w3.org/2000/svg" viewBox="0 0 1200 675" role="img" aria-labelledby="title desc">
  <title id="title">Cloudline Survey</title>
  <desc id="desc">A survey grid and two dice float among layered blue clouds.</desc>
  <defs><linearGradient id="sky" x1="0%" y1="0%" x2="0%" y2="100%"><stop stop-color="#7cc8e8"/><stop offset="100%" stop-color="#e6f4ef"/></linearGradient><filter id="shadow"><feDropShadow dx="0" dy="12" stdDeviation="12" flood-opacity=".22"/></filter></defs>
  <rect width="1200" height="675" fill="#a9d9e8"/>
  <g fill="#fff" opacity=".72"><path d="M0 145c70-75 170-48 196 25 72-51 165-10 170 70H0Z"/><path d="M890 65c62-55 139-26 157 37 72-35 139 14 153 82H840c-2-58 16-96 50-119Z"/></g>
  <g transform="translate(685 120)" filter="url(#shadow)"><rect width="390" height="390" rx="24" fill="#f8fbf5" stroke="#244e68" stroke-width="10"/><g fill="none" stroke="#8fb4bf" stroke-width="5"><path d="M0 97.5h390M0 195h390M0 292.5h390M97.5 0v390M195 0v390M292.5 0v390"/></g><g fill="#2f6fa2"><circle cx="49" cy="49" r="20"/><circle cx="146" cy="146" r="20"/><circle cx="244" cy="244" r="20"/><circle cx="341" cy="341" r="20"/></g><path d="M49 244h97v97h98" fill="none" stroke="#e8873c" stroke-width="18" stroke-linecap="round"/></g>
  <g transform="translate(610 455) rotate(-8)" filter="url(#shadow)"><rect width="110" height="110" rx="18" fill="#fff"/><circle cx="32" cy="32" r="10" fill="#244e68"/><circle cx="78" cy="78" r="10" fill="#244e68"/></g><g transform="translate(1030 470) rotate(10)" filter="url(#shadow)"><rect width="110" height="110" rx="18" fill="#fff"/><circle cx="30" cy="30" r="10" fill="#e46f3a"/><circle cx="80" cy="30" r="10" fill="#e46f3a"/><circle cx="55" cy="55" r="10" fill="#e46f3a"/><circle cx="30" cy="80" r="10" fill="#e46f3a"/><circle cx="80" cy="80" r="10" fill="#e46f3a"/></g>
  <text x="70" y="230" fill="#173d58" font-family="Georgia,serif" font-size="78" font-weight="700">Cloudline</text><text x="70" y="315" fill="#173d58" font-family="Georgia,serif" font-size="88" font-weight="700">Survey</text><text x="76" y="375" fill="#2f6f87" font-family="system-ui,sans-serif" font-size="26" letter-spacing="5">ROLL · MARK · MAP THE SKY</text>
</svg>
